<?xml version="1.0" standalone="no"?>
<!DOCTYPE svg PUBLIC "-//W3C//DTD SVG 20010904//EN"
 "http://www.w3.org/TR/2001/REC-SVG-20010904/DTD/svg10.dtd">
<svg version="1.0" xmlns="http://www.w3.org/2000/svg"
 width="512.000000pt" height="512.000000pt" viewBox="0 0 512.000000 512.000000"
 preserveAspectRatio="xMidYMid meet">
<metadata>
Created by potrace 1.14, written by Peter Selinger 2001-2017
</metadata>
<g transform="translate(0.000000,512.000000) scale(0.100000,-0.100000)"
fill="#000000" stroke="none">
<path d="M2484 3275 c-211 -38 -357 -183 -426 -422 -21 -70 -23 -100 -23 -288
0 -247 13 -320 78 -448 117 -228 349 -330 622 -272 184 39 323 170 370 350 28
108 29 106 -77 103 l-92 -3 -11 -53 c-20 -89 -64 -163 -119 -199 -65 -44 -114
-57 -221 -57 -75 0 -98 4 -140 24 -95 46 -161 133 -202 265 -15 51 -18 95 -18
280 0 202 2 226 23 295 66 210 205 303 419 278 134 -15 222 -103 257 -256 l13
-57 91 -3 92 -3 0 28 c-1 93 -63 228 -144 309 -72 72 -149 111 -255 130 -92
16 -144 16 -237 -1z"/>
<path d="M650 2560 l0 -710 95 0 95 0 2 328 3 327 355 0 355 0 3 -327 2 -328
95 0 95 0 -2 708 -3 707 -92 3 -93 3 0 -306 0 -305 -360 0 -360 0 0 305 0 305
-95 0 -95 0 0 -710z"/>
<path d="M3380 2560 l0 -710 95 0 95 0 2 328 3 327 355 0 355 0 3 -327 2 -328
90 0 90 0 0 710 0 710 -90 0 -90 0 -2 -302 -3 -303 -357 -3 -358 -2 0 305 0
305 -95 0 -95 0 0 -710z"/>
</g>
</svg>
