<svg width="210.353" height="77.394" viewBox="0 0 210.353 77.394" xmlns="http://www.w3.org/2000/svg"><g id="svgGroup" stroke-linecap="round" fill-rule="evenodd" font-size="9pt" stroke="#000" stroke-width="0" fill="#90b9ba" style="stroke:#000;stroke-width:0;fill:#90b9ba"><path d="M 0.001 73.048 L 0.001 4.444 A 3.242 3.242 0 0 1 0.806 2.247 A 2.876 2.876 0 0 1 1.51 1.648 A 2.362 2.362 0 0 1 2.735 1.319 L 9.571 1.319 A 2.361 2.361 0 0 1 11.338 2.094 A 3.255 3.255 0 0 1 11.475 2.247 Q 12.256 3.175 12.256 4.444 L 12.256 33.643 L 48.633 33.643 L 48.633 4.444 A 3.242 3.242 0 0 1 49.439 2.247 A 2.876 2.876 0 0 1 50.142 1.648 A 2.362 2.362 0 0 1 51.368 1.319 L 58.204 1.319 A 2.361 2.361 0 0 1 59.971 2.094 A 3.255 3.255 0 0 1 60.108 2.247 Q 60.889 3.175 60.889 4.444 L 60.889 72.999 A 3.242 3.242 0 0 1 60.084 75.196 A 2.876 2.876 0 0 1 59.38 75.795 A 2.362 2.362 0 0 1 58.155 76.124 L 51.319 76.124 A 2.361 2.361 0 0 1 49.551 75.349 A 3.255 3.255 0 0 1 49.415 75.196 Q 48.633 74.268 48.633 72.999 L 48.633 44.434 L 12.256 44.434 L 12.256 73.048 A 3.242 3.242 0 0 1 11.451 75.245 A 2.876 2.876 0 0 1 10.747 75.843 A 2.362 2.362 0 0 1 9.522 76.173 L 2.686 76.173 A 2.361 2.361 0 0 1 0.919 75.397 A 3.255 3.255 0 0 1 0.782 75.245 Q 0.001 74.317 0.001 73.048 Z M 149.464 73.048 L 149.464 4.444 A 3.242 3.242 0 0 1 150.269 2.247 A 2.876 2.876 0 0 1 150.972 1.648 A 2.362 2.362 0 0 1 152.198 1.319 L 159.034 1.319 A 2.361 2.361 0 0 1 160.801 2.094 A 3.255 3.255 0 0 1 160.938 2.247 Q 161.719 3.175 161.719 4.444 L 161.719 33.643 L 198.096 33.643 L 198.096 4.444 A 3.242 3.242 0 0 1 198.902 2.247 A 2.876 2.876 0 0 1 199.605 1.648 A 2.362 2.362 0 0 1 200.831 1.319 L 207.667 1.319 A 2.361 2.361 0 0 1 209.434 2.094 A 3.255 3.255 0 0 1 209.571 2.247 Q 210.352 3.175 210.352 4.444 L 210.352 72.999 A 3.242 3.242 0 0 1 209.547 75.196 A 2.876 2.876 0 0 1 208.843 75.795 A 2.362 2.362 0 0 1 207.618 76.124 L 200.782 76.124 A 2.361 2.361 0 0 1 199.014 75.349 A 3.255 3.255 0 0 1 198.878 75.196 Q 198.096 74.268 198.096 72.999 L 198.096 44.434 L 161.719 44.434 L 161.719 73.048 A 3.242 3.242 0 0 1 160.914 75.245 A 2.876 2.876 0 0 1 160.21 75.843 A 2.362 2.362 0 0 1 158.985 76.173 L 152.149 76.173 A 2.361 2.361 0 0 1 150.382 75.397 A 3.255 3.255 0 0 1 150.245 75.245 Q 149.464 74.317 149.464 73.048 Z M 130.714 23.243 L 127.344 23.243 A 3.391 3.391 0 0 1 126.275 23.082 A 2.713 2.713 0 0 1 124.927 22.095 A 4.354 4.354 0 0 1 124.312 20.899 Q 124.128 20.366 124.033 19.727 A 9.248 9.248 0 0 1 123.951 18.922 Q 123.829 16.895 122.706 15.211 A 8.662 8.662 0 0 0 119.825 12.501 A 12.646 12.646 0 0 0 116.617 11.216 Q 114.224 10.596 111.133 10.596 A 21.81 21.81 0 0 0 106.363 11.095 A 16.82 16.82 0 0 0 101.71 12.867 Q 97.706 15.137 95.264 18.946 Q 90.577 26.075 90.577 37.989 A 50.171 50.171 0 0 0 91.396 47.438 Q 92.357 52.434 94.446 56.145 A 19.469 19.469 0 0 0 104.542 64.942 A 25.021 25.021 0 0 0 109.575 66.328 A 21.101 21.101 0 0 0 112.94 66.602 A 34.867 34.867 0 0 0 119.718 65.972 A 26.818 26.818 0 0 0 126.026 63.917 L 128.76 62.647 A 8.26 8.26 0 0 1 129.67 62.302 Q 130.15 62.153 130.584 62.097 A 4.01 4.01 0 0 1 131.104 62.061 A 3.516 3.516 0 0 1 131.804 62.127 Q 132.363 62.241 132.764 62.55 A 2.381 2.381 0 0 1 133.102 62.878 Q 133.637 63.496 134.351 64.869 A 11.24 11.24 0 0 1 134.853 65.966 Q 135.078 66.543 135.191 67.062 A 4.64 4.64 0 0 1 135.303 68.043 A 4.111 4.111 0 0 1 134.885 69.825 A 5.595 5.595 0 0 1 134.376 70.679 A 9.796 9.796 0 0 1 132.123 72.919 A 10.961 10.961 0 0 1 132.081 72.95 A 19.363 19.363 0 0 1 129.286 74.449 A 26.593 26.593 0 0 1 126.319 75.538 A 41.258 41.258 0 0 1 119.872 76.9 Q 116.672 77.328 113.056 77.385 A 71.097 71.097 0 0 1 111.939 77.393 A 38.87 38.87 0 0 1 103.75 76.565 A 31.206 31.206 0 0 1 97.242 74.415 A 30.571 30.571 0 0 1 86.378 66.163 A 37.286 37.286 0 0 1 78.641 50.239 Q 77.354 44.638 77.344 38.092 A 67.125 67.125 0 0 1 77.344 37.989 A 52.552 52.552 0 0 1 78.524 26.531 Q 80.363 18.293 85.071 12.234 A 32.792 32.792 0 0 1 86.475 10.548 A 30.612 30.612 0 0 1 105.339 0.505 A 44.319 44.319 0 0 1 112.159 0.001 Q 121.143 0.001 128.077 4.005 Q 136.043 8.571 136.084 17.099 A 18.373 18.373 0 0 1 136.085 17.188 Q 136.085 22.377 132.14 23.119 A 7.721 7.721 0 0 1 130.714 23.243 Z" vector-effect="non-scaling-stroke"/></g></svg>